# xmcd CD database file
#
# Track frame offsets:
#	150
#	17203
#	36402
#	54785
#	72222
#	86279
#	103613
#	119633
#	136473
#	152644
#	173329
#	188315
#	208219
#	227591
#	242580
#	262199
#	276767
#
# Disc length: 3986 seconds
#
# Revision: 0
# Processed by: cddbd v1.4PL0 Copyright (c) Steve Scherf et al.
# Submitted via: CDex 1.50
#
DISCID=e20f9011
DTITLE=Vince Gill and Friends - Let's Make Sure We Kiss Goodbye and More
DYEAR=2000
DGENRE=Country
TTITLE0=One
TTITLE1=Feels Like Love
TTITLE2=Let's Make Sure We Kiss Goodbye
TTITLE3=For The Last Time
TTITLE4=When I Look Into Your Heart
TTITLE5=Shoot Straight From Your Heart
TTITLE6=Luckiest Guy In The World
TTITLE7=Little Things
TTITLE8=Baby Please Don't Go
TTITLE9=Look What Love's Revealing
TTITLE10=That Friend Of Mine
TTITLE11=Hey God
TTITLE12=Mac Davis - Texas In My Rearview Mirror
TTITLE13=Brooks and Dunn - Boot Scootin' Boogie
TTITLE14=Garth Brooks - Friends In Low Places
TTITLE15=Alan Jackson - Summertime Blues
TTITLE16=LeeAnn Womack - I Hope You Dance
EXTD=YEAR: 2000
EXTT0=
EXTT1=
EXTT2=
EXTT3=
EXTT4=
EXTT5=
EXTT6=
EXTT7=
EXTT8=
EXTT9=
EXTT10=
EXTT11=
EXTT12=
EXTT13=
EXTT14=
EXTT15=
EXTT16=
PLAYORDER=
